<?xml version="1.0" encoding="utf-8"?>
<!-- Generator: Adobe Illustrator 25.0.1, SVG Export Plug-In . SVG Version: 6.00 Build 0)  -->
<svg version="1.1" id="Layer_1" xmlns="http://www.w3.org/2000/svg" xmlns:xlink="http://www.w3.org/1999/xlink" x="0px" y="0px"
	 viewBox="0 0 256 256" style="enable-background:new 0 0 256 256;" xml:space="preserve">
<style type="text/css">
	.st0{fill:#FFFFFF;}
	.st1{fill:#FFD166;}
	.st2{fill:#26547C;}
	.st3{fill:#EF476F;}
	.st4{fill:#06D6A0;}
	.st5{fill:#FFFCF9;}
</style>
<path class="st0" d="M174,74c0,0-33.6,0-46,0c-25.4,0-46,20.6-46,46s20.6,46,46,46s46-20.6,46-46C174,111.4,174,74,174,74z"/>
<path class="st1" d="M53.8,231.2C68.6,205.4,96.2,188,128,188l0,0c31.8,0,59.4,17.4,74.2,43.2L202,238H54L53.8,231.2z"/>
<path class="st1" d="M202.2,237.2c-2,0-4.2-1-5.2-3c-14.2-24.8-40.6-40.2-69-40.2s-54.8,15.4-69,40.2c-1.6,2.8-5.4,3.8-8.2,2.2
	s-3.8-5.4-2.2-8.2C64.8,199.8,95.2,182,128,182s63.2,17.8,79.4,46.2c1.6,2.8,0.6,6.6-2.2,8.2C204.2,237,203.2,237.2,202.2,237.2z
	 M95,152c2.6-1.6,2.8-5.6,1-8.2c-5.2-6.8-8-15.2-8-23.8l0,0c0-2.2,1.8-3.8,3.8-3.8h14.4c6.2,0,12.8-0.8,19.4-2.8
	c13.2-4,24-12,30.6-21.4l0,0c0.8-1.2,1.6-2.2,2.2-3.4c1.6-2.8,5.2-4.2,8-2.8c3.2,1.6,4.2,5.4,2.6,8.4c-1,1.8-2.2,3.6-3.4,5.2
	s-1.4,3.8-0.6,5.8c2,4.8,3,10.2,2.8,15.8c-0.4,18.8-14.4,35.2-33,38.4c-6,1-12,0.8-17.8-0.8c-3-0.8-6.4,0.6-7.6,3.6
	c-1.2,3.2,0.6,6.8,4,7.8c4.6,1.4,9.4,2,14.4,2c15.4,0,29.2-6.8,38.8-17.4c4,1.4,8.4,1.8,13.2,1.2c14-1.8,25-13.6,26-27.6
	c0.6-7.6-1.8-14.4-5.8-20c6.4-5.8,10.2-14.2,9.8-23.4c-0.4-12-8.4-22.6-19.8-26.8c-6-2.2-11.6-2.4-16.8-1.2
	C163.8,41.8,147,32,128,32s-35.8,9.8-45.4,24.8c-5.2-1.2-11-1.2-17,1.2C54.4,62.4,46.4,72.8,46,85c-0.4,9.2,3.6,17.6,9.8,23.4
	c-4.4,6-6.6,13.4-5.6,21.6c1.6,13.4,12.4,24.2,25.8,26c6,0.8,11.6-0.2,16.4-2.4C92.4,153.2,93.8,152.6,95,152z"/>
<rect x="97" y="-238" class="st2" width="100" height="220"/>
<rect x="197" y="-238" class="st3" width="100" height="220"/>
<rect x="297" y="-238" class="st1" width="100" height="220"/>
<rect x="397" y="-238" class="st4" width="100" height="220"/>
<rect x="497" y="-238" class="st5" width="100" height="220"/>
</svg>
