<?xml version="1.0" encoding="utf-8"?>
<!-- Generator: Adobe Illustrator 25.0.1, SVG Export Plug-In . SVG Version: 6.00 Build 0)  -->
<svg version="1.1" id="Layer_1" xmlns="http://www.w3.org/2000/svg" xmlns:xlink="http://www.w3.org/1999/xlink" x="0px" y="0px"
	 viewBox="0 0 120 120" style="enable-background:new 0 0 120 120;" xml:space="preserve">
<style type="text/css">
	.st0{fill:#FFD166;}
	.st1{fill:#26547C;}
	.st2{fill:#EF476F;}
	.st3{fill:#06D6A0;}
	.st4{fill:#FFFCF9;}
</style>
<path class="st0" d="M60,8c-1,0-2,0.4-2.8,1.1L13.6,44.8c-0.1,0-0.1,0.1-0.1,0.1l-0.1,0.1v0C12.5,45.8,12,46.9,12,48
	c0,2.2,1.8,4,4,4h4v44c0,4.4,3.6,8,8,8h64c4.4,0,8-3.6,8-8V52h4c2.2,0,4-1.8,4-4c0-1.1-0.5-2.2-1.3-2.9l-0.1,0
	c-0.1-0.1-0.2-0.2-0.3-0.2l-6.4-5.2V24c0-2.2-1.8-4-4-4h-4c-2.2,0-4,1.8-4,4v5.8L62.7,9.1C62,8.4,61,8,60,8z M72,60h16v32H72V60z"/>
<rect x="137" y="-281" class="st1" width="100" height="220"/>
<rect x="237" y="-281" class="st2" width="100" height="220"/>
<rect x="337" y="-281" class="st0" width="100" height="220"/>
<rect x="437" y="-281" class="st3" width="100" height="220"/>
<rect x="537" y="-281" class="st4" width="100" height="220"/>
</svg>
